<svg xmlns="http://www.w3.org/2000/svg" xmlns:xlink="http://www.w3.org/1999/xlink" width="500" zoomAndPan="magnify" viewBox="0 0 375 374.999991" height="500" preserveAspectRatio="xMidYMid meet" version="1.0"><defs><g/><clipPath id="2b63c98e13"><path d="M 73 166 L 123 166 L 123 216 L 73 216 Z M 73 166 " clip-rule="nonzero"/></clipPath><clipPath id="c952d4b6e1"><path d="M 131.632812 191.203125 L 90.761719 232.074219 L 57.007812 198.320312 L 97.878906 157.449219 Z M 131.632812 191.203125 " clip-rule="nonzero"/></clipPath><clipPath id="7ab2591d99"><path d="M 73.960938 215.121094 L 109.804688 213.03125 L 100.320312 203.546875 L 122.148438 181.71875 L 107.363281 166.933594 L 85.535156 188.761719 L 76.050781 179.277344 Z M 73.960938 215.121094 " clip-rule="nonzero"/></clipPath><clipPath id="5e6127d40b"><path d="M 52 159 L 101 159 L 101 209 L 52 209 Z M 52 159 " clip-rule="nonzero"/></clipPath><clipPath id="7107b6665f"><path d="M 42.636719 183.796875 L 83.507812 142.925781 L 117.261719 176.675781 L 76.386719 217.546875 Z M 42.636719 183.796875 " clip-rule="nonzero"/></clipPath><clipPath id="3d21f8b442"><path d="M 100.308594 159.875 L 64.464844 161.96875 L 73.949219 171.453125 L 52.121094 193.28125 L 66.90625 208.0625 L 88.730469 186.234375 L 98.214844 195.71875 Z M 100.308594 159.875 " clip-rule="nonzero"/></clipPath></defs><rect x="-37.5" width="450" fill="#ffffff" y="-37.499999" height="449.999989" fill-opacity="1"/><rect x="-37.5" width="450" fill="#fefeff" y="-37.499999" height="449.999989" fill-opacity="1"/><g clip-path="url(#2b63c98e13)"><g clip-path="url(#c952d4b6e1)"><g clip-path="url(#7ab2591d99)"><path fill="#027dfc" d="M 131.632812 191.203125 L 90.890625 231.941406 L 57.140625 198.191406 L 97.878906 157.449219 Z M 131.632812 191.203125 " fill-opacity="1" fill-rule="nonzero"/></g></g></g><g clip-path="url(#5e6127d40b)"><g clip-path="url(#7107b6665f)"><g clip-path="url(#3d21f8b442)"><path fill="#35beff" d="M 42.636719 183.796875 L 83.375 143.054688 L 117.128906 176.808594 L 76.386719 217.546875 Z M 42.636719 183.796875 " fill-opacity="1" fill-rule="nonzero"/></g></g></g><g fill="#262632" fill-opacity="1"><g transform="translate(123.003484, 202.874987)"><g><path d="M 13.671875 0.53125 C 11.253906 0.53125 8.914062 0.203125 6.65625 -0.453125 C 4.40625 -1.109375 2.59375 -1.960938 1.21875 -3.015625 L 3.625 -8.34375 C 4.9375 -7.382812 6.492188 -6.613281 8.296875 -6.03125 C 10.109375 -5.445312 11.914062 -5.15625 13.71875 -5.15625 C 15.726562 -5.15625 17.210938 -5.453125 18.171875 -6.046875 C 19.140625 -6.648438 19.625 -7.445312 19.625 -8.4375 C 19.625 -9.164062 19.335938 -9.769531 18.765625 -10.25 C 18.203125 -10.726562 17.472656 -11.113281 16.578125 -11.40625 C 15.691406 -11.695312 14.492188 -12.019531 12.984375 -12.375 C 10.648438 -12.925781 8.738281 -13.476562 7.25 -14.03125 C 5.769531 -14.582031 4.492188 -15.46875 3.421875 -16.6875 C 2.359375 -17.914062 1.828125 -19.550781 1.828125 -21.59375 C 1.828125 -23.363281 2.304688 -24.96875 3.265625 -26.40625 C 4.234375 -27.851562 5.6875 -29 7.625 -29.84375 C 9.5625 -30.6875 11.929688 -31.109375 14.734375 -31.109375 C 16.679688 -31.109375 18.585938 -30.875 20.453125 -30.40625 C 22.316406 -29.945312 23.945312 -29.28125 25.34375 -28.40625 L 23.15625 -23.03125 C 20.332031 -24.632812 17.507812 -25.4375 14.6875 -25.4375 C 12.707031 -25.4375 11.242188 -25.113281 10.296875 -24.46875 C 9.347656 -23.832031 8.875 -22.988281 8.875 -21.9375 C 8.875 -20.882812 9.421875 -20.101562 10.515625 -19.59375 C 11.609375 -19.09375 13.273438 -18.59375 15.515625 -18.09375 C 17.847656 -17.539062 19.753906 -16.988281 21.234375 -16.4375 C 22.722656 -15.882812 24 -15.007812 25.0625 -13.8125 C 26.125 -12.613281 26.65625 -10.992188 26.65625 -8.953125 C 26.65625 -7.210938 26.164062 -5.617188 25.1875 -4.171875 C 24.21875 -2.734375 22.753906 -1.585938 20.796875 -0.734375 C 18.847656 0.109375 16.472656 0.53125 13.671875 0.53125 Z M 13.671875 0.53125 "/></g></g></g><g fill="#262632" fill-opacity="1"><g transform="translate(148.697768, 202.874987)"><g><path d="M 40.90625 -23.515625 L 32.390625 0 L 25.828125 0 L 20.546875 -14.59375 L 15.078125 0 L 8.515625 0 L 0.046875 -23.515625 L 6.46875 -23.515625 L 12.015625 -7.609375 L 17.78125 -23.515625 L 23.5625 -23.515625 L 29.15625 -7.609375 L 34.875 -23.515625 Z M 40.90625 -23.515625 "/></g></g></g><g fill="#262632" fill-opacity="1"><g transform="translate(187.458137, 202.874987)"><g><path d="M 12.625 -23.859375 C 16.269531 -23.859375 19.066406 -22.988281 21.015625 -21.25 C 22.972656 -19.519531 23.953125 -16.910156 23.953125 -13.421875 L 23.953125 0 L 17.5625 0 L 17.5625 -2.921875 C 16.28125 -0.742188 13.894531 0.34375 10.40625 0.34375 C 8.59375 0.34375 7.023438 0.0390625 5.703125 -0.5625 C 4.378906 -1.175781 3.363281 -2.019531 2.65625 -3.09375 C 1.957031 -4.175781 1.609375 -5.40625 1.609375 -6.78125 C 1.609375 -8.957031 2.429688 -10.671875 4.078125 -11.921875 C 5.734375 -13.179688 8.28125 -13.8125 11.71875 -13.8125 L 17.125 -13.8125 C 17.125 -15.289062 16.671875 -16.429688 15.765625 -17.234375 C 14.867188 -18.035156 13.519531 -18.4375 11.71875 -18.4375 C 10.457031 -18.4375 9.222656 -18.238281 8.015625 -17.84375 C 6.804688 -17.457031 5.78125 -16.925781 4.9375 -16.25 L 2.484375 -21.015625 C 3.765625 -21.921875 5.300781 -22.617188 7.09375 -23.109375 C 8.894531 -23.609375 10.738281 -23.859375 12.625 -23.859375 Z M 12.109375 -4.234375 C 13.273438 -4.234375 14.304688 -4.503906 15.203125 -5.046875 C 16.109375 -5.585938 16.75 -6.378906 17.125 -7.421875 L 17.125 -9.828125 L 12.453125 -9.828125 C 9.660156 -9.828125 8.265625 -8.910156 8.265625 -7.078125 C 8.265625 -6.203125 8.601562 -5.507812 9.28125 -5 C 9.96875 -4.488281 10.910156 -4.234375 12.109375 -4.234375 Z M 12.109375 -4.234375 "/></g></g></g><g fill="#262632" fill-opacity="1"><g transform="translate(212.234744, 202.874987)"><g><path d="M 17.046875 -23.859375 C 19.234375 -23.859375 21.222656 -23.351562 23.015625 -22.34375 C 24.804688 -21.34375 26.207031 -19.929688 27.21875 -18.109375 C 28.238281 -16.296875 28.75 -14.175781 28.75 -11.75 C 28.75 -9.332031 28.238281 -7.210938 27.21875 -5.390625 C 26.207031 -3.578125 24.804688 -2.164062 23.015625 -1.15625 C 21.222656 -0.15625 19.234375 0.34375 17.046875 0.34375 C 14.046875 0.34375 11.6875 -0.597656 9.96875 -2.484375 L 9.96875 8.484375 L 3.140625 8.484375 L 3.140625 -23.515625 L 9.65625 -23.515625 L 9.65625 -20.796875 C 11.34375 -22.835938 13.804688 -23.859375 17.046875 -23.859375 Z M 15.859375 -5.25 C 17.609375 -5.25 19.039062 -5.835938 20.15625 -7.015625 C 21.28125 -8.191406 21.84375 -9.769531 21.84375 -11.75 C 21.84375 -13.738281 21.28125 -15.320312 20.15625 -16.5 C 19.039062 -17.675781 17.609375 -18.265625 15.859375 -18.265625 C 14.109375 -18.265625 12.671875 -17.675781 11.546875 -16.5 C 10.429688 -15.320312 9.875 -13.738281 9.875 -11.75 C 9.875 -9.769531 10.429688 -8.191406 11.546875 -7.015625 C 12.671875 -5.835938 14.109375 -5.25 15.859375 -5.25 Z M 15.859375 -5.25 "/></g></g></g></svg>